<?xml version="1.0" standalone="no"?>
<!DOCTYPE svg PUBLIC "-//W3C//DTD SVG 20010904//EN"
 "http://www.w3.org/TR/2001/REC-SVG-20010904/DTD/svg10.dtd">
<svg version="1.0" xmlns="http://www.w3.org/2000/svg"
 width="200.000000pt" height="200.000000pt" viewBox="0 0 200.000000 200.000000"
 preserveAspectRatio="xMidYMid meet">

<g transform="translate(0.000000,200.000000) scale(0.100000,-0.100000)"
fill="#000000" stroke="none">
<path d="M620 1523 c-29 -11 -70 -45 -81 -66 -10 -19 -8 -19 17 5 16 15 41 31
56 37 17 6 164 11 376 11 377 2 379 1 441 -54 23 -22 30 -25 23 -11 -12 24
-49 58 -79 74 -23 11 -723 15 -753 4z"/>
<path d="M1171 1288 c1 -39 2 -40 8 -13 l6 30 87 5 c122 8 122 20 0 20 l-102
0 1 -42z"/>
<path d="M1273 983 l-103 -4 2 -67 c1 -66 1 -66 7 -17 l6 50 76 6 c66 6 119
21 119 34 0 3 -1 4 -2 3 -2 -1 -49 -4 -105 -5z"/>
<path d="M730 961 c0 -17 4 -19 32 -11 49 15 76 3 81 -33 3 -20 4 -15 3 13
l-1 45 -57 3 c-52 3 -58 1 -58 -17z"/>
<path d="M662 623 c-45 -4 -52 -6 -42 -19 17 -20 54 -18 81 6 13 10 22 19 19
18 -3 -1 -29 -3 -58 -5z"/>
<path d="M951 620 c-8 -4 -29 -6 -48 -4 -34 4 -46 -9 -17 -20 25 -10 49 -7 70
8 21 16 17 30 -5 16z"/>
<path d="M1221 623 c-142 -3 -161 -5 -151 -18 10 -12 40 -15 145 -15 117 0
136 2 156 20 13 10 22 18 19 17 -3 -1 -79 -3 -169 -4z"/>
<path d="M1500 535 c-6 -8 -39 -28 -73 -45 l-60 -30 -376 0 c-356 0 -378 1
-421 21 -24 11 -53 27 -63 36 -16 15 -17 15 -12 1 8 -19 68 -62 108 -77 37
-14 724 -15 775 -2 32 9 160 109 141 111 -4 0 -12 -7 -19 -15z"/>
</g>
</svg>
